<?xml version="1.0" encoding="UTF-8"?><svg xmlns="http://www.w3.org/2000/svg" xmlns:xlink="http://www.w3.org/1999/xlink" viewBox="0 0 140 35"><defs><style>.e{fill:url(#d);}.f{fill:#a17dee;}</style><linearGradient id="d" x1="0" y1="23.22" x2="122.08" y2="23.22" gradientTransform="matrix(1, 0, 0, 1, 0, 0)" gradientUnits="userSpaceOnUse"><stop offset="0" stop-color="#4758dd"/><stop offset=".04" stop-color="#4a57dd"/><stop offset=".44" stop-color="#6a52e6"/><stop offset=".77" stop-color="#7e4fec"/><stop offset="1" stop-color="#864eee"/></linearGradient></defs><g id="a"/><g id="b"><g id="c"><g><circle class="f" cx="136.29" cy="3.71" r="3.71"/><path class="e" d="M4.46,34.18c-1.33-.55-2.4-1.35-3.19-2.42-.8-1.07-1.22-2.36-1.26-3.87H5.96c.09,.85,.38,1.5,.88,1.95,.5,.45,1.16,.67,1.97,.67s1.49-.19,1.97-.57c.48-.38,.72-.91,.72-1.59,0-.57-.19-1.04-.57-1.41-.38-.37-.85-.68-1.41-.92-.56-.24-1.35-.51-2.38-.82-1.49-.46-2.7-.92-3.64-1.38-.94-.46-1.75-1.13-2.42-2.03-.68-.9-1.02-2.06-1.02-3.51,0-2.14,.78-3.82,2.33-5.03,1.55-1.21,3.57-1.82,6.06-1.82s4.58,.61,6.13,1.82c1.55,1.21,2.38,2.9,2.49,5.06h-6.06c-.04-.74-.32-1.33-.82-1.75-.5-.43-1.15-.64-1.93-.64-.68,0-1.22,.18-1.64,.54-.42,.36-.62,.88-.62,1.56,0,.74,.35,1.32,1.05,1.74,.7,.42,1.79,.86,3.28,1.34,1.49,.5,2.69,.98,3.62,1.44,.93,.46,1.73,1.13,2.41,2,.68,.87,1.02,2,1.02,3.37s-.33,2.5-1,3.57c-.67,1.07-1.63,1.92-2.9,2.56-1.27,.63-2.76,.95-4.49,.95s-3.19-.27-4.52-.82Zm30.67-3.47h-8.58l-1.38,4.06h-5.87L27.62,11.77h6.49l8.32,23h-5.93l-1.38-4.06Zm-1.44-4.32l-2.85-8.42-2.82,8.42h5.67Zm16.87,4.06h7.34v4.32h-12.94V11.77h5.6V30.45Zm15.63-14.19v4.65h7.5v4.32h-7.5v5.05h8.49v4.49h-14.09V11.77h14.09v4.49h-8.49Zm17.72,0v4.65h7.5v4.32h-7.5v5.05h8.49v4.49h-14.09V11.77h14.09v4.49h-8.49Zm38.17-4.49v23h-5.6v-13.79l-5.14,13.79h-4.52l-5.18-13.83v13.83h-5.6V11.77h6.62l6.45,15.92,6.39-15.92h6.59Z"/></g></g></g></svg>